<?xml version="1.0" standalone="no"?>
<!DOCTYPE svg PUBLIC "-//W3C//DTD SVG 20010904//EN"
 "http://www.w3.org/TR/2001/REC-SVG-20010904/DTD/svg10.dtd">
<svg version="1.0" xmlns="http://www.w3.org/2000/svg"
 width="512.000000pt" height="512.000000pt" viewBox="0 0 512.000000 512.000000"
 preserveAspectRatio="xMidYMid meet">

<g transform="translate(-200.000000,610.000000) scale(0.050000,-0.050000)"
fill="#000000" stroke="none">
<path d="M4231 10679 l-1 -1665 390 -405 391 -404 751 -5 750 -5 1272 -3119
c700 -1716 1277 -3121 1282 -3123 5 -1 533 1254 1174 2790 640 1536 1227 2942
1304 3125 l139 332 751 0 751 0 398 411 397 412 0 1658 c0 913 -3 1659 -7
1659 -5 0 -56 -114 -114 -253 -59 -138 -319 -755 -579 -1369 l-473 -1118 -966
0 -966 0 -884 -2185 -884 -2185 -480 1203 c-264 661 -656 1643 -871 2182
l-392 980 -984 0 -984 0 -572 1355 c-316 745 -578 1364 -583 1375 -6 13 -10
-574 -10 -1646z m1987 -1181 c13 -16 246 -574 256 -610 l6 -28 -957 0 -958 0
-87 87 -88 88 0 237 0 238 909 0 c715 0 911 -3 919 -12z m7600 -223 l2 -229
-92 -93 -93 -93 -927 0 c-511 0 -928 3 -928 8 0 4 59 150 132 325 l133 317
885 -2 885 -3 3 -230z m-5524 -2477 c441 -1104 804 -2004 807 -2000 3 4 360
885 794 1957 433 1073 798 1974 811 2003 l23 52 481 0 c474 0 481 0 475 -20
-12 -38 -2597 -6225 -2603 -6232 -6 -6 -2535 6180 -2550 6235 -4 16 22 17 479
15 l483 -3 800 -2007z"/>




</g>
</svg>
